<svg xmlns="http://www.w3.org/2000/svg" viewBox="0 0 900 620"><defs><linearGradient id="g" x1="0" y1="0" x2="1" y2="1"><stop stop-color="#2b2d42"/><stop offset=".55" stop-color="#8d99ae"/><stop offset="1" stop-color="#fca311"/></linearGradient></defs><rect width="900" height="620" fill="url(#g)"/><circle cx="710" cy="115" r="65" fill="#ffd166"/><g fill="#161a1d"><rect x="50" y="300" width="120" height="320"/><rect x="190" y="235" width="135" height="385"/><rect x="350" y="335" width="105" height="285"/><rect x="480" y="190" width="150" height="430"/><rect x="655" y="275" width="110" height="345"/><rect x="790" y="225" width="110" height="395"/></g><g fill="#ffd166"><rect x="75" y="335" width="18" height="25"/><rect x="115" y="335" width="18" height="25"/><rect x="220" y="270" width="20" height="28"/><rect x="270" y="270" width="20" height="28"/><rect x="515" y="230" width="20" height="28"/><rect x="570" y="230" width="20" height="28"/><rect x="815" y="265" width="18" height="25"/></g></svg>